<svg width="70" height="27" viewBox="0 0 70 27" fill="none" xmlns="http://www.w3.org/2000/svg">
<g clip-path="url(#clip0_2009_263)">
<path d="M14.4278 8.27079C15.1014 8.08749 15.8198 7.98972 16.5651 7.98972C19.8279 7.98972 22.5519 9.88146 23.1745 12.3964L27.7993 11.6265C26.7397 7.35426 22.1119 4.13782 16.5651 4.13782C15.2929 4.13782 14.0746 4.30646 12.9312 4.61931L14.4278 8.27079Z" fill="white"/>
<path d="M8.97098 20.5061L12.0991 17.6196C10.7042 16.6102 9.8241 15.1364 9.8241 13.4939C9.8241 11.8539 10.7042 10.3802 12.0991 9.37318L8.97098 6.48425C6.60021 8.20001 5.10352 10.7052 5.10352 13.4939C5.10352 16.2851 6.60021 18.7903 8.97098 20.5061" fill="white"/>
<path d="M23.1745 14.5986C22.5489 17.1112 19.8279 19.0005 16.5681 19.0005C15.8198 19.0005 15.0984 18.9027 14.4278 18.7169L12.9312 22.3733C14.0746 22.6837 15.2959 22.8524 16.5681 22.8524C22.1089 22.8524 26.7337 19.6408 27.7993 15.3734L23.1745 14.5986Z" fill="white"/>
<path d="M31.8434 17.7393C31.6908 17.5389 31.4872 17.2187 31.3615 16.9816C30.6281 15.5934 30.5952 14.1563 31.2118 12.7778C31.8913 11.2649 33.1904 10.1088 34.8697 9.51735C36.9801 8.77679 39.3119 8.92099 41.3355 9.90108C42.6196 10.5023 43.5296 11.4311 44.2211 12.746C44.3079 12.9147 44.3857 13.0931 44.4636 13.2471L31.8434 17.7393ZM36.0581 11.7488C34.5584 12.2743 33.7861 13.423 33.9478 14.7673L40.2938 12.5358C39.2012 11.4897 37.7823 11.1427 36.0581 11.7488V11.7488ZM41.084 16.6028C41.081 16.6028 41.081 16.6053 41.081 16.6053L40.9493 16.5319C40.5692 17.033 39.9795 17.4411 39.2341 17.7051C37.8152 18.2086 36.5011 18.079 35.5552 17.402L35.4684 17.5096C35.4684 17.5096 35.4684 17.5071 35.4654 17.5071L33.855 19.4746C34.2561 19.7019 34.6842 19.8926 35.1332 20.0465C36.9112 20.6502 38.7312 20.6209 40.5243 19.9854C41.8204 19.526 42.8381 18.8269 43.5326 17.9397L41.084 16.6028ZM48.8728 6.62354V17.5585L50.9562 18.2477L49.7738 20.5011L47.4749 19.719C46.96 19.5357 46.6068 19.2571 46.3434 18.9418C46.089 18.6216 45.9004 18.1793 45.9004 17.5878V6.62354H48.8728ZM54.2669 14.7746C54.2669 13.8434 54.7728 13.0075 55.569 12.4405L53.4318 10.495C51.983 11.5411 51.07 13.0686 51.07 14.7697C51.067 16.4733 51.98 18.0033 53.4258 19.0494L55.5601 17.1038C54.7668 16.5344 54.2669 15.7034 54.2669 14.7746V14.7746ZM58.0625 17.8762C57.6435 17.8762 57.2364 17.8175 56.8592 17.7149L55.8384 20.1907C56.5359 20.3814 57.2813 20.4865 58.0595 20.4865C61.4421 20.4889 64.2648 18.5288 64.9204 15.9258L61.7833 15.4028C61.4271 16.8179 59.8975 17.8786 58.0625 17.8762V17.8762ZM58.0715 9.06275C57.2962 9.06275 56.5509 9.1654 55.8534 9.3536L56.8652 11.8319C57.2453 11.7293 57.6495 11.6731 58.0685 11.6731C59.9065 11.6755 61.4391 12.7411 61.7863 14.1587L64.9234 13.6406C64.2798 11.0327 61.457 9.06519 58.0715 9.06275V9.06275Z" fill="white"/>
</g>
<defs>
<clipPath id="clip0_2009_263">
<rect width="70" height="27" fill="white"/>
</clipPath>
</defs>
</svg>
