<svg width="69" height="27" viewBox="0 0 69 27" fill="none" xmlns="http://www.w3.org/2000/svg">
<path d="M50.9342 15.6367C50.9342 16.0644 49.6302 16.5901 48.5697 16.5901H47.604C47.6051 13.9728 47.6051 11.0386 47.604 10.5178C47.6036 10.5024 47.611 10.4871 47.6257 10.4728C47.6404 10.4585 47.6622 10.4454 47.6898 10.4344C47.7174 10.4234 47.7503 10.4147 47.7866 10.4086C47.8229 10.4026 47.8619 10.3995 47.9013 10.3993H50.6356C50.7998 10.3993 50.9344 10.4533 50.9344 10.5187V15.6367H50.9342ZM46.4785 17.5085C46.4785 17.7792 46.14 18.2327 43.8724 18.2327C39.4781 18.2327 36.7806 16.8855 36.7806 15.9193C36.7806 15.9193 36.7757 12.7952 36.7757 10.5188C36.7752 10.5033 36.7826 10.488 36.7973 10.4737C36.8121 10.4594 36.8339 10.4463 36.8616 10.4353C36.8893 10.4243 36.9223 10.4155 36.9586 10.4095C36.995 10.4035 37.034 10.4004 37.0735 10.4003H39.8111C39.9755 10.4003 40.1105 10.4539 40.1105 10.5198V15.5394C40.1105 16.3688 41.7879 17.0415 43.8558 17.0415H46.48L46.4785 17.5085ZM50.8431 9.94916H47.6933C47.0236 9.94916 46.4782 10.168 46.4782 10.4365V16.5906H43.8539C42.406 16.5906 41.2326 16.1199 41.2326 15.5393V10.4365C41.2326 10.1674 40.6879 9.94892 40.0169 9.94892H36.8657C36.1946 9.94892 35.6501 10.1674 35.6491 10.4365C35.6475 12.6616 35.654 15.9194 35.654 15.9194C35.6544 17.6319 40.4403 18.6834 43.8715 18.6834C46.1731 18.6834 47.6025 18.2322 47.6025 17.5054V17.0414H48.5692C50.2648 17.0414 52.0583 16.3195 52.0583 15.6367V10.4365C52.0599 10.1674 51.5154 9.94892 50.8433 9.94892V9.94916H50.8431ZM32.2272 16.4812C32.2276 16.4966 32.2202 16.5119 32.2054 16.5262C32.1907 16.5405 32.1688 16.5535 32.1412 16.5645C32.1135 16.5755 32.0806 16.5842 32.0442 16.5902C32.0079 16.5962 31.9689 16.5993 31.9295 16.5994H29.1919C29.0253 16.5994 28.8918 16.5454 28.8926 16.4802V11.4605C28.8926 10.6312 27.2147 9.9585 25.1472 9.9585H22.5229V9.49143C22.5229 9.2213 22.8614 8.76723 25.129 8.76723C29.5234 8.76723 32.2217 10.1143 32.2217 11.0806C32.2217 11.0806 32.2266 14.2198 32.2266 16.4811H32.2272V16.4812ZM18.3644 16.6005C18.1979 16.5985 18.0647 16.546 18.0666 16.4808V11.3638C18.0666 10.9361 19.3707 10.4097 20.4309 10.4097H21.3974C21.3959 14.1577 21.3959 16.0755 21.3974 16.4806C21.3981 16.5119 21.3672 16.542 21.3113 16.5644C21.2554 16.5868 21.1791 16.5996 21.0991 16.6H18.3649L18.3644 16.6005ZM33.3453 11.0806C33.3459 9.36803 28.5599 8.31653 25.1291 8.31653C22.827 8.31653 21.3974 8.76764 21.3974 9.49451V9.9585H20.4313C18.7351 9.9585 16.9417 10.6804 16.9417 11.3633V16.5634C16.9417 16.8325 17.4862 17.051 18.1569 17.051H21.3062C21.3257 17.051 21.3425 17.0489 21.3621 17.0489C22.0057 17.0368 22.5213 16.8247 22.5213 16.5634V10.4093H25.146C26.5933 10.4093 27.7673 10.88 27.7673 11.4606V16.5634C27.7673 16.8326 28.312 17.051 28.9826 17.051H32.1344C32.8054 17.051 33.3496 16.8331 33.3496 16.5634C33.352 14.2969 33.3458 11.0805 33.3458 11.0805L33.3453 11.0806Z" fill="white"/>
</svg>
